<?xml version="1.0" standalone="no"?>
<!DOCTYPE svg PUBLIC "-//W3C//DTD SVG 20010904//EN"
 "http://www.w3.org/TR/2001/REC-SVG-20010904/DTD/svg10.dtd">
<svg version="1.0" xmlns="http://www.w3.org/2000/svg"
 width="512.000000pt" height="512.000000pt" viewBox="0 0 512.000000 512.000000"
 preserveAspectRatio="xMidYMid meet">
<metadata>
Created by potrace 1.14, written by Peter Selinger 2001-2017
</metadata>
<g transform="translate(0.000000,512.000000) scale(0.100000,-0.100000)"
fill="#000000" stroke="none">
<path d="M2385 4678 c-99 -171 -192 -332 -206 -357 -15 -25 -50 -86 -79 -136
-29 -49 -60 -103 -70 -120 -9 -16 -34 -61 -56 -98 -21 -38 -53 -93 -69 -122
-17 -29 -33 -57 -37 -61 -4 -4 -323 -7 -708 -6 -385 0 -700 -4 -700 -8 0 -7
54 -103 129 -228 17 -29 31 -55 31 -57 0 -3 17 -33 38 -67 21 -35 42 -70 46
-78 4 -8 12 -24 19 -35 7 -11 59 -101 116 -200 58 -99 144 -248 193 -332 48
-83 96 -167 107 -186 l19 -35 -38 -63 c-22 -35 -39 -68 -40 -72 0 -4 -8 -20
-19 -35 -16 -24 -137 -231 -193 -331 -33 -58 -203 -352 -304 -527 -52 -88 -94
-165 -94 -170 0 -5 282 -9 691 -9 451 0 693 -3 699 -10 7 -8 128 -217 215
-370 13 -22 71 -123 130 -225 59 -102 119 -205 133 -229 48 -87 82 -146 92
-161 25 -40 104 -178 114 -197 6 -13 13 -23 16 -23 3 1 61 98 129 218 216 378
563 977 571 987 6 7 249 10 705 10 383 0 699 3 701 7 2 3 -15 39 -39 80 -24
40 -55 93 -69 118 -40 70 -173 301 -509 881 l-79 136 123 214 c68 118 223 387
345 598 122 211 222 387 222 391 0 5 -310 8 -689 7 -697 0 -721 1 -721 33 0 5
-22 46 -49 92 -27 46 -78 134 -115 196 -36 62 -66 114 -66 116 0 2 -17 33 -38
67 -22 35 -50 84 -64 109 -14 25 -67 117 -118 205 -51 88 -101 176 -112 195
-79 137 -111 190 -117 194 -3 2 -87 -135 -186 -306z m-685 -1183 c0 -2 -66
-117 -147 -256 -80 -140 -165 -287 -187 -326 -23 -40 -43 -73 -46 -73 -3 0
-21 28 -40 62 -19 35 -47 83 -61 108 -15 25 -51 88 -81 140 -97 168 -118 205
-128 220 -9 13 -60 105 -68 121 -1 3 169 6 378 6 209 0 380 -1 380 -2z m2480
-1 c0 -2 -48 -85 -106 -186 -59 -101 -115 -199 -126 -218 -48 -84 -102 -178
-120 -208 l-20 -32 -140 242 c-77 134 -157 272 -178 308 -22 36 -42 72 -45 81
-5 14 30 16 365 16 203 0 370 -2 370 -3z m-1252 -2169 c-25 -46 -352 -611
-361 -623 -7 -9 -23 10 -59 75 -28 49 -57 99 -66 113 -9 14 -15 28 -14 33 1 4
-2 7 -8 7 -5 0 -10 4 -10 9 0 5 -26 54 -58 108 -32 54 -61 105 -65 113 -4 8
-11 22 -17 30 -34 53 -88 149 -85 152 2 2 172 3 378 3 372 0 375 0 365 -20z"/>
</g>
</svg>
